<svg xmlns="http://www.w3.org/2000/svg" width="205" height="98" viewBox="0 0 205 98"><g fill="none" fill-rule="evenodd" transform="translate(0 9)"><polyline fill="#225189" points="6.732 60.291 19.235 60.301 19.245 45.401 6.743 45.393 6.732 60.291"/><polyline fill="#9BC863" points="27.123 60.291 39.625 60.301 39.635 45.401 27.133 45.393 27.123 60.291"/><polyline fill="#0093C8" points="47.514 60.291 60.016 60.301 60.026 45.401 47.523 45.393 47.514 60.291"/><polyline fill="#A1A4A0" points="67.905 60.291 80.406 60.301 80.416 45.401 67.914 45.393 67.905 60.291"/><polyline fill="#225189" points="202.748 16.487 202.748 10.852 191.048 10.852 191.048 .066 184.615 .066 184.615 10.852 164.009 10.852 163.14 10.872 162.331 10.985 161.544 11.14 160.827 11.41 160.111 11.723 159.46 12.127 158.833 12.572 158.278 13.134 157.689 13.716 157.223 14.363 156.793 15.031 156.483 15.772 156.209 16.511 156.034 17.294 155.922 18.1 155.899 18.973 155.922 19.798 156.034 20.604 156.103 20.982 156.209 21.386 156.322 21.746 156.483 22.124 156.612 22.46 156.793 22.82 157.223 23.488 157.689 24.138 158.278 24.767 158.833 25.279 159.46 25.749 160.111 26.151 160.827 26.488 161.544 26.734 162.331 26.911 163.14 27.025 164.009 27.071 172.148 27.071 172.687 27.094 173.179 27.204 173.381 27.269 173.585 27.382 173.921 27.675 174.032 27.809 174.164 27.985 174.367 28.412 174.412 28.634 174.479 28.903 174.525 29.507 174.504 29.776 174.479 29.91 174.479 30.066 174.438 30.177 174.412 30.313 174.367 30.558 174.297 30.65 174.256 30.76 174.164 30.962 174.032 31.14 173.921 31.322 173.738 31.43 173.585 31.567 173.381 31.656 173.27 31.7 173.179 31.765 172.935 31.812 172.799 31.834 172.687 31.878 172.419 31.899 172.148 31.922 159.392 31.922 159.392 31.945 155.899 31.945 155.899 37.628 172.148 37.628 172.554 37.604 172.638 37.583 172.981 37.583 173.786 37.47 173.966 37.405 174.164 37.358 174.57 37.274 175.332 37.024 175.669 36.847 176.027 36.69 176.05 36.645 176.095 36.622 176.184 36.578 176.365 36.487 176.722 36.286 177.035 36.038 177.371 35.818 177.998 35.281 178.249 34.967 178.515 34.676 178.742 34.339 178.968 34.027 179.344 33.355 179.5 32.996 179.684 32.663 179.726 32.461 179.792 32.281 179.928 31.922 180.02 31.521 180.106 31.14 180.219 30.333 180.219 30.001 180.241 29.91 180.264 29.507 180.219 28.611 180.106 27.785 179.928 27.002 179.684 26.265 179.344 25.547 178.968 24.901 178.515 24.275 177.998 23.713 177.371 23.133 176.722 22.662 176.027 22.238 175.669 22.055 175.332 21.923 174.57 21.655 174.164 21.544 173.786 21.477 172.981 21.364 172.148 21.341 164.009 21.341 163.697 21.319 163.43 21.295 162.959 21.184 162.531 20.982 162.354 20.849 162.22 20.735 162.063 20.559 161.951 20.405 161.837 20.202 161.771 20 161.658 19.509 161.636 18.973 161.658 18.388 161.771 17.897 161.951 17.475 162.063 17.294 162.22 17.159 162.354 17.005 162.531 16.891 162.959 16.712 163.43 16.598 163.697 16.578 164.009 16.598 184.615 16.598 184.615 28.569 184.637 29.483 184.678 29.932 184.767 30.403 184.839 30.827 184.951 31.277 185.264 32.125 185.422 32.504 185.622 32.907 186.094 33.692 186.341 34.05 186.631 34.43 187.28 35.123 187.93 35.705 188.67 36.22 189.41 36.667 190.242 37.024 191.067 37.294 191.967 37.493 192.883 37.628 193.849 37.675 202.748 37.675 202.748 31.253 193.849 31.253 193.489 31.208 193.176 31.185 192.861 31.121 192.594 31.051 192.327 30.938 192.101 30.827 191.898 30.693 191.744 30.558 191.562 30.36 191.429 30.157 191.292 29.932 191.205 29.707 191.113 29.44 191.067 29.173 191.048 28.569 191.048 16.487 202.748 16.487"/><path fill="#225189" d="M123.373531 31.2113688C119.500608 31.2113688 116.362971 28.0716786 116.362971 24.2001242 116.362971 20.3272007 119.500608 17.1875104 123.373531 17.1875104 127.245086 17.1875104 130.382722 20.3272007 130.382722 24.2001242 130.382722 28.0716786 127.245086 31.2113688 123.373531 31.2113688ZM123.373531 10.7267044C115.934396 10.7267044 109.898742 16.7589352 109.898742 24.198755 109.898742 26.7900606 110.643614 29.2026791 111.91154 31.2572387L98.655146 31.2572387 98.3005103 31.2113688 97.9855828 31.1874069 97.6939326 31.1209983 97.4467829 31.0532204 97.1784099 30.9429958 96.9538529 30.8320865 96.7518886 30.6972154 96.5937402 30.5650828 96.4157377 30.3631184 96.2822358 30.1810082 96.0795868 29.7360019 95.9905856 29.4683136 95.9454003 29.1978867 95.9228077 28.6159554 95.9228077 17.3641437 109.281211 17.3641437 109.281211 10.9204533 95.9228077 10.9204533 95.9228077.116386249 89.5126639.116386249 89.5126639 10.9204533 85.0523321 10.9204533 85.0523321 17.3641437 89.5126639 17.3641437 89.5126639 28.5707702 89.488702 29.0417922 89.5126639 29.5347222 89.5551106 29.980413 89.6447965 30.4534889 89.7118898 30.8745333 89.8262221 31.3243319 90.1384111 32.1732669 90.2972441 32.554603 90.4978393 32.9564779 90.945584 33.7184655 91.4850685 34.4318447 92.1347776 35.1260545 92.7844867 35.7066165 93.5006045 36.2228237 94.2413687 36.6691992 95.0499108 37.0286273 95.8769378 37.2970003 96.7518886 37.4982801 97.6699707 37.6338358 98.655146 37.6749133 123.845238 37.6749133C123.838392 37.6687517 123.828807 37.659167 123.822645 37.6523207 131.055024 37.4140712 136.846267 31.492065 136.846267 24.198755 136.846267 16.7589352 130.816774 10.7267044 123.373531 10.7267044L123.373531 10.7267044ZM32.4656018 17.1875104C35.2533947 17.1875104 37.6523207 18.8189718 38.7812673 21.1727125L26.1499362 21.1727125C27.2816213 18.8189718 29.6805473 17.1875104 32.4656018 17.1875104ZM74.1448867 10.8869066C71.402279 10.8869066 68.9184595 12.0048992 67.1172111 13.8116246 65.3166474 12.0048992 62.8341972 10.8869066 60.0915895 10.8869066 54.5913123 10.8869066 50.1302958 15.3807851 50.1302958 20.9228244L50.1302958 31.267508 32.5231103 31.2052072C32.5039408 31.2052072 32.4868251 31.2113688 32.4656018 31.2113688 32.4464323 31.2113688 32.4293166 31.2052072 32.4087779 31.2052072L32.3690696 31.2052072 32.3690696 31.2010994C29.7195709 31.1641297 27.4267618 29.6606932 26.2663225 27.4657854L45.8630282 27.4657854C46.1731634 25.2523928 46.0266536 23.3306505 45.7103569 21.7566976 45.516608 20.704429 45.2030498 19.696661 44.78269 18.7457169 44.3260451 17.6907098 43.9234856 17.1169941 43.9234856 17.1169941L43.9186933 17.1252096C41.5450984 13.2899404 37.3113775 10.7267044 32.4656018 10.7267044 26.071889 10.7267044 20.7229139 15.1918286 19.3468177 21.1727125L13.2057315 21.1727125C13.2769325 18.6402847 13.5453055 15.903154 13.5453055 15.903154L13.7698625 14.8988091 14.0813668 13.9814116 14.4414796 13.1071455 14.8905936 12.2842262 15.3842082 11.4982767 15.9428622 10.7616203 16.5734018 10.0660413 17.2902042 9.46288665 18.0261761 8.83577015 18.8107563 8.32093216 19.6179292 7.85127941 20.4935645 7.47131254 21.3698845 7.13653092 22.3112439 6.89143517 23.2738266 6.68878618 24.28091 6.5771923 33.912899 6.5771923 33.912899 0 24.9990816 0 24.1035921.0670932493 23.2039949.137609623 22.3536906.271111497 21.4801091.405297996 20.6517129.607262368 19.8205782.807172866 19.0359979 1.07349199 18.2308789 1.34528811 17.4675221 1.67733123 16.7069037 2.0134821 15.9907859 2.4406881 14.5742968 3.31221571 13.2543399 4.35900733 12.5806689 4.8978072 11.9788835 5.48247694 11.3942137 6.06235431 10.3624839 7.31590267 9.89146189 7.98409666 9.44303252 8.6591369 9.06238103 9.39716265 8.6591369 10.1125958 8.31956291 10.8718449 8.00942779 11.6317786 7.73900092 12.4608595 7.46857404 13.2666631 7.2672943 14.1155981 7.08997642 14.9891796 6.97632867 15.903154C6.97632867 15.903154 6.78874143 18.458859 6.74287155 21.1727125L0 21.1727125 0 27.4657854 6.73191755 27.4657854C6.73191755 32.0555114 6.73191755 37.6749133 6.73191755 37.6749133L13.1872466 37.6749133C13.1872466 37.6749133 13.1872466 32.0267571 13.1872466 27.4657854L19.4084339 27.4657854C20.8714775 33.32686 26.1581517 37.6749133 32.4656018 37.6749133 32.7421903 37.6749133 33.0447945 37.6660132 33.3658836 37.6509515L50.3035059 37.6509515 50.3035059 37.6085047 55.9824703 37.6283588 55.9824703 28.7097491 55.9824703 20.9228244C55.9824703 18.6170074 57.82685 16.7397657 60.0915895 16.7397657 62.3255208 16.7397657 64.1411463 18.5690837 64.1918085 20.8317693 64.1918085 20.8612081 64.1815392 20.8920163 64.1815392 20.9228244L64.1815392 28.7097491 64.1931778 28.7097491 64.1931778 37.6550592 70.0501446 37.6749133 70.0501446 27.7875592 70.0535677 27.7875592 70.0535677 20.9228244C70.0535677 20.8920163 70.0453522 20.8612081 70.0453522 20.8317693 70.0939606 18.5690837 71.9095861 16.7397657 74.1448867 16.7397657 76.4096262 16.7397657 78.2533213 18.6170074 78.2533213 20.9228244L78.2533213 26.1622595 78.2512674 26.1622595 78.2512674 37.6406821 78.2964526 37.6406821 78.2964526 37.6564285 84.106865 37.6749133 84.106865 20.9228244C84.106865 15.3807851 79.6451639 10.8869066 74.1448867 10.8869066L74.1448867 10.8869066Z"/><polygon fill="#225189" points="141.001 27.131 151.744 27.131 151.744 21.27 141.001 21.27"/><path fill="#0093C8" d="M97.9178049 68.378975C97.9178049 68.4933074 97.9123279 68.592578 97.9006893 68.6767869 97.8876814 68.7609957 97.8685119 68.8287736 97.8418116 68.8794359 97.8144266 68.9314674 97.7815646 68.9684371 97.7425409 68.992399 97.7035173 69.0170455 97.6590167 69.0286841 97.6117776 69.0286841L94.3262622 69.0286841 94.3262622 79.155657C94.3262622 79.2035808 94.313939 79.2460275 94.2906617 79.2823126 94.2653306 79.3179131 94.2235685 79.3466674 94.1633215 79.3678908 94.1030745 79.3891141 94.023658 79.4069144 93.9243873 79.4219761 93.8251167 79.4370379 93.6998303 79.4445688 93.5498975 79.4445688 93.4054416 79.4445688 93.2822091 79.4370379 93.1802 79.4219761 93.0775062 79.4069144 92.9960359 79.3891141 92.9357889 79.3678908 92.8755419 79.3466674 92.8337797 79.3179131 92.8098179 79.2823126 92.7851714 79.2460275 92.7742174 79.2035808 92.7742174 79.155657L92.7742174 69.0286841 89.488702 69.0286841C89.4400936 69.0286841 89.3962776 69.0170455 89.357254 68.992399 89.3182304 68.9684371 89.2867376 68.9314674 89.2627758 68.8794359 89.2388139 68.8287736 89.2189598 68.7609957 89.203898 68.6767869 89.1888363 68.592578 89.1813054 68.4933074 89.1813054 68.378975 89.1813054 68.2646426 89.1888363 68.1640028 89.203898 68.0770554 89.2189598 67.990108 89.2388139 67.918907 89.2627758 67.8648216 89.2867376 67.8107363 89.3182304 67.771028 89.357254 67.7470661 89.3962776 67.7231043 89.4400936 67.710781 89.488702 67.710781L97.6117776 67.710781C97.6590167 67.710781 97.7035173 67.7231043 97.7425409 67.7470661 97.7815646 67.771028 97.8144266 67.8107363 97.8418116 67.8648216 97.8685119 67.918907 97.8876814 67.990108 97.9006893 68.0770554 97.9123279 68.1640028 97.9178049 68.2646426 97.9178049 68.378975M106.104551 78.7496744C106.104551 78.8585298 106.099074 78.9523234 106.08675 79.0337938 106.074427 79.1152641 106.053204 79.183042 106.02308 79.2371274 105.992957 79.2912128 105.95941 79.3302364 105.919702 79.3541983 105.880678 79.3781601 105.836862 79.3904834 105.788938 79.3904834L100.183914 79.3904834C100.045619 79.3904834 99.9141714 79.3446135 99.7916235 79.2508199 99.6677064 79.1577109 99.6060902 78.9934009 99.6060902 78.7585745L99.6060902 68.3426899C99.6060902 68.1078635 99.6677064 67.9442381 99.7916235 67.8504445 99.9141714 67.7580201 100.045619 67.710781 100.183914 67.710781L105.725953 67.710781C105.773877 67.710781 105.817008 67.7231043 105.856716 67.7470661 105.89574 67.771028 105.927233 67.8107363 105.951195 67.8648216 105.975156 67.918907 105.995011 67.9866849 106.010072 68.0674706 106.025134 68.148941 106.032665 68.2495809 106.032665 68.3700749 106.032665 68.4782456 106.025134 68.5727239 106.010072 68.6541942 105.995011 68.73498 105.975156 68.8020732 105.951195 68.8527355 105.927233 68.9040824 105.89574 68.9417367 105.856716 68.9656986 105.817008 68.9896605 105.773877 69.0019837 105.725953 69.0019837L101.15882 69.0019837 101.15882 72.6667813 105.075559 72.6667813C105.124168 72.6667813 105.167299 72.6797892 105.207007 72.7064896 105.246031 72.7338746 105.278893 72.771529 105.305593 72.8194527 105.332978 72.8680611 105.352832 72.9337851 105.364471 73.0179939 105.376794 73.1022028 105.382956 73.2021581 105.382956 73.3164904 105.382956 73.4246612 105.376794 73.5177702 105.364471 73.5958174 105.352832 73.6738647 105.332978 73.7375348 105.305593 73.7854586 105.278893 73.8340669 105.246031 73.8682982 105.207007 73.8895216 105.167299 73.9107449 105.124168 73.9210143 105.075559 73.9210143L101.15882 73.9210143 101.15882 78.0999653 105.788938 78.0999653C105.836862 78.0999653 105.880678 78.1122885 105.919702 78.1362504 105.95941 78.1602123 105.992957 78.1978666 106.02308 78.2485289 106.053204 78.2998758 106.074427 78.3662844 106.08675 78.4470701 106.099074 78.5285405 106.104551 78.629865 106.104551 78.7496744M116.213723 77.7391679C116.213723 77.8350154 116.2103 77.9192243 116.204138 77.9917945 116.197977 78.0636801 116.187707 78.1266656 116.172646 78.180751 116.157584 78.2348364 116.13773 78.2834448 116.114453 78.3252069 116.089806 78.3676536 116.047359 78.4190005 115.987112 78.4792475 115.92755 78.5394945 115.800894 78.6312343 115.609199 78.7537821 115.416135 78.8776993 115.177201 78.9981933 114.891028 79.1152641 114.605539 79.232335 114.276919 79.3316056 113.907222 79.413076 113.53684 79.4938618 113.132911 79.5349393 112.693382 79.5349393 111.935502 79.5349393 111.250877 79.4082836 110.640191 79.155657 110.028821 78.9030304 109.509191 78.5299098 109.078562 78.0362951 108.648617 77.5433651 108.317259 76.9340489 108.085171 76.2083464 107.854452 75.4840132 107.73875 74.6487707 107.73875 73.7039882 107.73875 72.7352438 107.862668 71.8719317 108.11324 71.1140518 108.362444 70.356172 108.712972 69.7133091 109.16414 69.1868325 109.615992 68.6603559 110.155477 68.258481 110.784647 67.9818925 111.413133 67.705304 112.109396 67.5663251 112.874123 67.5663251 113.210958 67.5663251 113.538209 67.5978179 113.857244 67.661488 114.176279 67.7244735 114.471353 67.8045746 114.742464 67.9011068 115.012891 67.9969543 115.253194 68.1078635 115.464743 68.2345191 115.674239 68.3611747 115.820748 68.4645531 115.901534 68.5460235 115.983689 68.6268092 116.035721 68.6891101 116.059683 68.7315569 116.083644 68.773319 116.103499 68.822612 116.11856 68.8794359 116.133622 68.9369444 116.145945 69.0047222 116.154845 69.0827695 116.163746 69.1608167 116.167853 69.2546104 116.167853 69.3627811 116.167853 69.4832751 116.161692 69.5859689 116.150053 69.6701777 116.13773 69.7543866 116.11993 69.824903 116.095968 69.8817269 116.072006 69.9392354 116.043252 69.9809975 116.009705 70.0083825 115.976158 70.0350829 115.935081 70.0487754 115.887157 70.0487754 115.802264 70.0487754 115.684508 69.9898976 115.532521 69.8728267 115.381904 69.7557559 115.186786 69.6263617 114.947852 69.4846444 114.708917 69.3436116 114.417952 69.2142175 114.076324 69.096462 113.734696 68.9793911 113.32529 68.9205134 112.847422 68.9205134 112.327107 68.9205134 111.853347 69.0238917 111.426825 69.2320177 111.000304 69.4394591 110.636083 69.7448019 110.334164 70.148046 110.030875 70.5512901 109.796733 71.0435355 109.630369 71.6234128 109.464005 72.2046595 109.380481 72.8680611 109.380481 73.6136177 109.380481 74.3536973 109.460582 75.0081988 109.621469 75.5771222 109.781671 76.1460455 110.011705 76.6211753 110.310887 77.003196 110.610068 77.3852168 110.977711 77.6741285 111.413817 77.8692466 111.849239 78.0650494 112.341484 78.1629508 112.892607 78.1629508 113.358152 78.1629508 113.76482 78.1061269 114.112609 77.9917945 114.460399 77.8774621 114.757526 77.7494373 115.001937 77.6077199 115.246348 77.4666871 115.447628 77.3386623 115.605776 77.2243299 115.762555 77.1099975 115.886472 77.0531737 115.977528 77.0531737 116.01929 77.0531737 116.056259 77.0620738 116.086383 77.079874 116.116506 77.0976743 116.140468 77.1325902 116.158953 77.1832524 116.177438 77.2345993 116.190446 77.3058003 116.200031 77.3961708 116.208931 77.4865413 116.213723 77.6008736 116.213723 77.7391679M126.683693 79.155657C126.683693 79.2035808 126.67137 79.2460275 126.647408 79.2823126 126.623446 79.3179131 126.580999 79.3466674 126.520752 79.3678908 126.460505 79.3891141 126.381089 79.4069144 126.281818 79.4219761 126.182548 79.4370379 126.06 79.4445688 125.915544 79.4445688 125.759449 79.4445688 125.632794 79.4370379 125.537631 79.4219761 125.440414 79.4069144 125.362367 79.3891141 125.30212 79.3678908 125.241873 79.3466674 125.200111 79.3179131 125.176149 79.2823126 125.151503 79.2460275 125.140549 79.2035808 125.140549 79.155657L125.140549 73.9750997 119.823751 73.9750997 119.823751 79.155657C119.823751 79.2035808 119.811428 79.2460275 119.787466 79.2823126 119.763504 79.3179131 119.721742 79.3466674 119.661495 79.3678908 119.601248 79.3891141 119.521831 79.4069144 119.421876 79.4219761 119.32329 79.4370379 119.198004 79.4445688 119.047386 79.4445688 118.90293 79.4445688 118.779698 79.4370379 118.677689 79.4219761 118.574995 79.4069144 118.494209 79.3891141 118.433962 79.3678908 118.373715 79.3466674 118.331268 79.3179131 118.307306 79.2823126 118.283345 79.2460275 118.271021 79.2035808 118.271021 79.155657L118.271021 67.9456074C118.271021 67.8976836 118.283345 67.8552369 118.307306 67.8196364 118.331268 67.7833513 118.373715 67.7552816 118.433962 67.7340583 118.494209 67.7128349 118.574995 67.6950346 118.677689 67.6792883 118.779698 67.6649111 118.90293 67.6566956 119.047386 67.6566956 119.198004 67.6566956 119.32329 67.6649111 119.421876 67.6792883 119.521831 67.6950346 119.601248 67.7128349 119.661495 67.7340583 119.721742 67.7552816 119.763504 67.7833513 119.787466 67.8196364 119.811428 67.8552369 119.823751 67.8976836 119.823751 67.9456074L119.823751 72.6209115 125.140549 72.6209115 125.140549 67.9456074C125.140549 67.8976836 125.151503 67.8552369 125.176149 67.8196364 125.200111 67.7833513 125.241873 67.7552816 125.30212 67.7340583 125.362367 67.7128349 125.440414 67.6950346 125.537631 67.6792883 125.632794 67.6649111 125.759449 67.6566956 125.915544 67.6566956 126.06 67.6566956 126.182548 67.6649111 126.281818 67.6792883 126.381089 67.6950346 126.460505 67.7128349 126.520752 67.7340583 126.580999 67.7552816 126.623446 67.7833513 126.647408 67.8196364 126.67137 67.8552369 126.683693 67.8976836 126.683693 67.9456074L126.683693 79.155657M138.615338 78.7496744C138.615338 78.8701684 138.595483 78.9728621 138.554406 79.057071 138.514698 79.1412799 138.461982 79.2097424 138.396258 79.2638278 138.330534 79.3179131 138.257963 79.3576214 138.177178 79.3815833 138.095707 79.4055451 138.014921 79.4178684 137.934136 79.4178684L137.420667 79.4178684C137.259095 79.4178684 137.117378 79.4014374 136.996199 79.3678908 136.874336 79.3350288 136.759319 79.2747818 136.650464 79.1871498 136.541609 79.1002024 136.432753 78.9810776 136.323898 78.8311448 136.214358 78.6805273 136.098656 78.4881476 135.977478 78.2533213L132.414689 71.610405C132.227786 71.2674078 132.040199 70.9079797 131.850558 70.531436 131.661602 70.1562615 131.485653 69.7899871 131.322712 69.4353514L131.304912 69.4353514C131.316551 69.868719 131.325451 70.3103021 131.331612 70.76147 131.337089 71.2133225 131.340512 71.6617518 131.340512 72.1067581L131.340512 79.155657C131.340512 79.1981038 131.328189 79.2384966 131.302858 79.2775203 131.276842 79.3165439 131.234396 79.3466674 131.174149 79.3678908 131.113217 79.3891141 131.034485 79.4069144 130.935899 79.4219761 130.837313 79.4370379 130.712027 79.4445688 130.56004 79.4445688 130.407369 79.4445688 130.281398 79.4370379 130.183496 79.4219761 130.08491 79.4069144 130.007548 79.3891141 129.950039 79.3678908 129.893215 79.3466674 129.851453 79.3165439 129.826122 79.2775203 129.800791 79.2384966 129.788468 79.1981038 129.788468 79.155657L129.788468 68.378975C129.788468 68.137987 129.856245 67.9668308 129.992486 67.8648216 130.130095 67.7628125 130.278659 67.710781 130.440231 67.710781L131.204272 67.710781C131.384328 67.710781 131.534261 67.7265274 131.656125 67.7566509 131.777303 67.7867744 131.885474 67.8360674 131.982006 67.9052145 132.077854 67.9743616 132.171647 68.0708938 132.261333 68.1934416 132.351704 68.3173588 132.446182 68.4727686 132.544768 68.6589866L135.283952 73.7854586C135.453055 74.0983322 135.615311 74.4036749 135.772775 74.7014868 135.929554 74.9992987 136.080856 75.2930028 136.225996 75.5812299 136.371822 75.8701417 136.515593 76.154261 136.657995 76.4349573 136.800397 76.7142843 136.941429 76.9956652 137.081093 77.2784153L137.090678 77.2784153C137.07767 76.8032855 137.070139 76.3083017 137.0674 75.7934637 137.064662 75.2793103 137.063293 74.7843264 137.063293 74.3091967L137.063293 67.9729924C137.063293 67.9312303 137.075616 67.891522 137.100947 67.8552369 137.126278 67.8196364 137.16941 67.7881436 137.229657 67.7607586 137.289904 67.7340583 137.36932 67.7142041 137.467221 67.7025655 137.566492 67.6902423 137.694517 67.6840806 137.85335 67.6840806 137.993013 67.6840806 138.114192 67.6902423 138.215517 67.7025655 138.316841 67.7142041 138.396258 67.7340583 138.453766 67.7607586 138.51059 67.7881436 138.551667 67.8196364 138.577683 67.8552369 138.603014 67.891522 138.615338 67.9312303 138.615338 67.9729924L138.615338 78.7496744M149.861672 73.5239318C149.861672 72.8618995 149.802795 72.2464216 149.685724 71.6774982 149.568653 71.1092595 149.373535 70.6156448 149.100369 70.197339 148.826519 69.7797177 148.46093 69.4531516 148.004285 69.2183252 147.54764 68.9841835 146.982824 68.866428 146.309838 68.866428 145.636852 68.866428 145.072036 68.992399 144.615391 69.2457102 144.158746 69.4983369 143.787679 69.8351724 143.502191 70.2562167 143.216702 70.6772611 143.011999 71.1695065 142.888767 71.7315836 142.765534 72.29503 142.704603 72.8858613 142.704603 73.5054469 142.704603 74.1914412 142.761427 74.8233501 142.875759 75.4011735 142.989407 75.9783124 143.181786 76.4767194 143.452898 76.8943407 143.72264 77.3133312 144.084807 77.6378434 144.538713 77.8692466 144.992619 78.1013345 145.562227 78.2170361 146.246852 78.2170361 146.926 78.2170361 147.496978 78.0903805 147.959784 77.8377539 148.421906 77.5851273 148.794342 77.244184 149.077092 76.8135549 149.359842 76.3836104 149.561122 75.885888 149.680931 75.3203878 149.801425 74.7542029 149.861672 74.1551561 149.861672 73.5239318ZM151.504088 73.4150764C151.504088 74.3598589 151.392494 75.2115324 151.169991 75.9700969 150.947488 76.7279768 150.615444 77.3735782 150.173177 77.9055318 149.730909 78.43817 149.175678 78.8475758 148.507484 79.1330644 147.839975 79.4192376 147.060187 79.5623243 146.170174 79.5623243 145.291116 79.5623243 144.531867 79.4308763 143.891058 79.1693495 143.250249 78.9078228 142.720349 78.5271713 142.302728 78.0280796 141.884422 77.5283034 141.572918 76.9087178 141.368899 76.1686382 141.163512 75.4285585 141.060818 74.5768851 141.060818 73.6136177 141.060818 72.6934817 141.173097 71.85687 141.3956 71.1044671 141.618103 70.3527489 141.951515 69.7133091 142.397206 69.1868325 142.842212 68.6603559 143.399497 68.2543733 144.067006 67.9682 144.7352 67.6827114 145.513619 67.5396248 146.404316 67.5396248 147.26489 67.5396248 148.014554 67.6690189 148.65194 67.9278071 149.29001 68.1865954 149.820595 68.5638237 150.245747 69.0601769 150.66953 69.5572146 150.985827 70.1706386 151.192583 70.9011335 151.400709 71.6329976 151.504088 72.470294 151.504088 73.4150764L151.504088 73.4150764ZM160.015346 78.7140739C160.015346 78.8338833 160.009184 78.9345231 159.99823 79.0159935 159.985222 79.0967793 159.966053 79.166611 159.939352 79.2234349 159.911967 79.2809434 159.879105 79.3227055 159.839397 79.3494059 159.801058 79.3767909 159.753819 79.3904834 159.699733 79.3904834L154.536976 79.3904834C154.398682 79.3904834 154.267919 79.3446135 154.144686 79.2508199 154.020769 79.1577109 153.959153 78.9934009 153.959153 78.7585745L153.959153 67.9456074C153.959153 67.8976836 153.971476 67.8552369 153.995438 67.8196364 154.0194 67.7833513 154.061847 67.7552816 154.122094 67.7340583 154.182341 67.7128349 154.263126 67.6950346 154.36582 67.6792883 154.467829 67.6649111 154.591062 67.6566956 154.735518 67.6566956 154.886135 67.6566956 155.010737 67.6649111 155.110008 67.6792883 155.209963 67.6950346 155.289379 67.7128349 155.349626 67.7340583 155.409189 67.7552816 155.451635 67.7833513 155.475597 67.8196364 155.499559 67.8552369 155.511882 67.8976836 155.511882 67.9456074L155.511882 78.0458799 159.699733 78.0458799C159.753819 78.0458799 159.801058 78.0595724 159.839397 78.0862728 159.879105 78.1136578 159.911967 78.1526814 159.939352 78.2033436 159.966053 78.2553751 159.985222 78.3224684 159.99823 78.4066773 160.009184 78.4908861 160.015346 78.5935799 160.015346 78.7140739M169.465909 73.5239318C169.465909 72.8618995 169.407031 72.2464216 169.28996 71.6774982 169.17289 71.1092595 168.977771 70.6156448 168.703921 70.197339 168.430756 69.7797177 168.065166 69.4531516 167.608521 69.2183252 167.151877 68.9841835 166.587061 68.866428 165.914075 68.866428 165.241088 68.866428 164.676273 68.992399 164.219628 69.2457102 163.762983 69.4983369 163.391916 69.8351724 163.106427 70.2562167 162.820939 70.6772611 162.616236 71.1695065 162.493003 71.7315836 162.369771 72.29503 162.308839 72.8858613 162.308839 73.5054469 162.308839 74.1914412 162.365663 74.8233501 162.479996 75.4011735 162.593643 75.9783124 162.786023 76.4767194 163.05645 76.8943407 163.326877 77.3133312 163.689043 77.6378434 164.142265 77.8692466 164.596171 78.1013345 165.165779 78.2170361 165.850404 78.2170361 166.530237 78.2170361 167.101214 78.0903805 167.563336 77.8377539 168.026143 77.5851273 168.398579 77.244184 168.681329 76.8135549 168.963394 76.3836104 169.164674 75.885888 169.285168 75.3203878 169.405662 74.7542029 169.465909 74.1551561 169.465909 73.5239318ZM171.108324 73.4150764C171.108324 74.3598589 170.99673 75.2115324 170.774227 75.9700969 170.551724 76.7279768 170.218997 77.3735782 169.777413 77.9055318 169.334461 78.43817 168.779915 78.8475758 168.111721 79.1330644 167.444211 79.4192376 166.664424 79.5623243 165.774411 79.5623243 164.895353 79.5623243 164.136103 79.4308763 163.495294 79.1693495 162.854485 78.9078228 162.324586 78.5271713 161.906964 78.0280796 161.487974 77.5283034 161.17647 76.9087178 160.972451 76.1686382 160.767748 75.4285585 160.665055 74.5768851 160.665055 73.6136177 160.665055 72.6934817 160.776649 71.85687 160.999836 71.1044671 161.222339 70.3527489 161.555752 69.7133091 162.000758 69.1868325 162.446449 68.6603559 163.003049 68.2543733 163.671243 67.9682 164.338752 67.6827114 165.117856 67.5396248 166.008553 67.5396248 166.869126 67.5396248 167.618791 67.6690189 168.256177 67.9278071 168.894247 68.1865954 169.424832 68.5638237 169.849299 69.0601769 170.273082 69.5572146 170.589379 70.1706386 170.79682 70.9011335 171.004946 71.6329976 171.108324 72.470294 171.108324 73.4150764L171.108324 73.4150764ZM182.336859 69.2997956C182.336859 69.414128 182.330697 69.5147679 182.318374 69.6017152 182.306735 69.6893472 182.28825 69.7612329 182.264289 69.8180567 182.240327 69.8755652 182.210203 69.9166427 182.173918 69.9406046 182.137633 69.9645665 182.098609 69.9768897 182.056847 69.9768897 181.984962 69.9768897 181.863783 69.9193812 181.69605 69.8050489 181.526948 69.6907165 181.301706 69.5640609 181.018956 69.4257666 180.736206 69.2874724 180.398001 69.1608167 180.002972 69.0464844 179.609313 68.932152 179.141714 68.8753281 178.600176 68.8753281 177.955944 68.8753281 177.37812 68.992399 176.866705 69.2272254 176.35529 69.4620517 175.921923 69.7872486 175.567287 70.2021314 175.211967 70.6170141 174.94017 71.1106287 174.749845 71.6822906 174.560888 72.2539525 174.465725 72.8735381 174.465725 73.5417321 174.465725 74.2879733 174.569788 74.9500057 174.777914 75.5271445 174.984671 76.104968 175.272214 76.592421 175.639173 76.9895035 176.006132 77.386586 176.444292 77.687821 176.952283 77.8918393 177.46096 78.0965421 178.018929 78.1992359 178.627561 78.1992359 178.988358 78.1992359 179.353263 78.1554199 179.723645 78.0677879 180.093343 77.9808405 180.437709 77.8500771 180.757429 77.6754978L180.757429 74.2729116 178.049737 74.2729116C177.946359 74.2729116 177.870365 74.2215647 177.819019 74.1195556 177.768356 74.0168618 177.742341 73.8580288 177.742341 73.6410027 177.742341 73.5266703 177.747818 73.4287689 177.760825 73.3479832 177.772464 73.2665128 177.792318 73.2007888 177.819019 73.1494419 177.846404 73.0980951 177.877896 73.0604407 177.914181 73.0364788 177.949782 73.0118323 177.994967 73.0001937 178.049737 73.0001937L181.759035 73.0001937C181.824759 73.0001937 181.891168 73.0118323 181.957577 73.0364788 182.023985 73.0604407 182.083548 73.0967258 182.137633 73.1446496 182.192403 73.1925733 182.234165 73.2589819 182.264289 73.3431908 182.294412 73.4273997 182.309474 73.5239318 182.309474 73.6321026L182.309474 78.082165C182.309474 78.2382595 182.282089 78.3738153 182.228003 78.4881476 182.173918 78.60248 182.059586 78.7031199 181.885006 78.7900673 181.710427 78.8776993 181.484501 78.9728621 181.207912 79.0748713 180.931324 79.1768804 180.645835 79.2638278 180.350762 79.336398 180.055688 79.4082836 179.757877 79.462369 179.457326 79.4986541 179.156091 79.5349393 178.858279 79.5527395 178.563891 79.5527395 177.66087 79.5527395 176.855067 79.413076 176.14511 79.1330644 175.43447 78.8537374 174.834738 78.4552856 174.344547 77.9377091 173.853671 77.4201327 173.479181 76.800547 173.220392 76.0782677 172.961604 75.3559883 172.83221 74.5501847 172.83221 73.6594876 172.83221 72.7325053 172.972558 71.8931551 173.251885 71.1407522 173.531897 70.3883494 173.925556 69.748225 174.434917 69.2183252 174.942909 68.6891101 175.553594 68.2783351 176.266289 67.9866849 176.979668 67.6950346 177.769726 67.5485249 178.635776 67.5485249 179.081467 67.5485249 179.499088 67.5882331 179.890694 67.6662804 180.281615 67.7443276 180.62872 67.8360674 180.933378 67.940815 181.236667 68.0469319 181.492716 68.1612643 181.700158 68.2838121 181.908284 68.4077292 182.050686 68.5083691 182.129418 68.587101 182.20678 68.6651482 182.260865 68.7555187 182.290989 68.8575279 182.321112 68.9602216 182.336859 69.1067314 182.336859 69.2997956M186.777337 79.155657C186.777337 79.2035808 186.765013 79.2460275 186.741051 79.2823126 186.71709 79.3179131 186.674643 79.3466674 186.61508 79.3678908 186.554833 79.3891141 186.474732 79.4069144 186.375462 79.4219761 186.276191 79.4370379 186.151589 79.4445688 186.000972 79.4445688 185.856516 79.4445688 185.732599 79.4370379 185.631274 79.4219761 185.528581 79.4069144 185.44711 79.3891141 185.387548 79.3678908 185.327301 79.3466674 185.284854 79.3179131 185.260892 79.2823126 185.23693 79.2460275 185.224607 79.2035808 185.224607 79.155657L185.224607 67.9456074C185.224607 67.8976836 185.2383 67.8552369 185.265685 67.8196364 185.292385 67.7833513 185.33757 67.7552816 185.400556 67.7340583 185.464226 67.7128349 185.545012 67.6950346 185.644967 67.6792883 185.743553 67.6649111 185.862678 67.6566956 186.000972 67.6566956 186.151589 67.6566956 186.276191 67.6649111 186.375462 67.6792883 186.474732 67.6950346 186.554833 67.7128349 186.61508 67.7340583 186.674643 67.7552816 186.71709 67.7833513 186.741051 67.8196364 186.765013 67.8552369 186.777337 67.8976836 186.777337 67.9456074L186.777337 79.155657M196.380571 78.7496744C196.380571 78.8585298 196.37441 78.9523234 196.362771 79.0337938 196.350448 79.1152641 196.329224 79.183042 196.299101 79.2371274 196.268977 79.2912128 196.234746 79.3302364 196.195723 79.3541983 196.156699 79.3781601 196.112883 79.3904834 196.064959 79.3904834L190.459934 79.3904834C190.32164 79.3904834 190.190192 79.3446135 190.067644 79.2508199 189.943727 79.1577109 189.882111 78.9934009 189.882111 78.7585745L189.882111 68.3426899C189.882111 68.1078635 189.943727 67.9442381 190.067644 67.8504445 190.190192 67.7580201 190.32164 67.710781 190.459934 67.710781L196.001289 67.710781C196.049897 67.710781 196.093029 67.7231043 196.132737 67.7470661 196.171761 67.771028 196.202569 67.8107363 196.227215 67.8648216 196.251177 67.918907 196.271031 67.9866849 196.286093 68.0674706 196.301155 68.148941 196.308686 68.2495809 196.308686 68.3700749 196.308686 68.4782456 196.301155 68.5727239 196.286093 68.6541942 196.271031 68.73498 196.251177 68.8020732 196.227215 68.8527355 196.202569 68.9040824 196.171761 68.9417367 196.132737 68.9656986 196.093029 68.9896605 196.049897 69.0019837 196.001289 69.0019837L191.43484 69.0019837 191.43484 72.6667813 195.35158 72.6667813C195.400188 72.6667813 195.44332 72.6797892 195.483028 72.7064896 195.521367 72.7338746 195.554914 72.771529 195.581614 72.8194527 195.608999 72.8680611 195.628853 72.9337851 195.640492 73.0179939 195.652815 73.1022028 195.658977 73.2021581 195.658977 73.3164904 195.658977 73.4246612 195.652815 73.5177702 195.640492 73.5958174 195.628853 73.6738647 195.608999 73.7375348 195.581614 73.7854586 195.554914 73.8340669 195.521367 73.8682982 195.483028 73.8895216 195.44332 73.9107449 195.400188 73.9210143 195.35158 73.9210143L191.43484 73.9210143 191.43484 78.0999653 196.064959 78.0999653C196.112883 78.0999653 196.156699 78.1122885 196.195723 78.1362504 196.234746 78.1602123 196.268977 78.1978666 196.299101 78.2485289 196.329224 78.2998758 196.350448 78.3662844 196.362771 78.4470701 196.37441 78.5285405 196.380571 78.629865 196.380571 78.7496744M205 76.1145528C205 76.6622528 204.900045 77.1490212 204.69808 77.5762271 204.496801 78.0034331 204.216789 78.3662844 203.85873 78.6634116 203.500671 78.9619081 203.078942 79.1857805 202.594912 79.336398 202.110198 79.4870155 201.589198 79.5623243 201.02849 79.5623243 200.63757 79.5623243 200.275403 79.5287776 199.941306 79.462369 199.607209 79.396645 199.310082 79.3158593 199.04787 79.2193271 198.786344 79.122795 198.566579 79.0235244 198.389261 78.9208306 198.211259 78.8188215 198.088026 78.7318741 198.018879 78.6599885 197.949732 78.5874183 197.898385 78.4956785 197.865523 78.3840846 197.831976 78.2731754 197.815545 78.1239271 197.815545 77.9377091 197.815545 77.8048919 197.821707 77.6953519 197.83403 77.6077199 197.845669 77.5207725 197.863469 77.4502561 197.887431 77.3961708 197.912077 77.3420854 197.942201 77.304431 197.978486 77.2832077 198.014771 77.2619843 198.055849 77.2517149 198.104457 77.2517149 198.188666 77.2517149 198.307791 77.3023772 198.461147 77.4043863 198.614503 77.50708 198.811675 77.6186739 199.052663 77.7391679 199.292966 77.8596619 199.583247 77.972625 199.923506 78.0773726 200.26308 78.1828049 200.65537 78.2348364 201.101061 78.2348364 201.437896 78.2348364 201.746662 78.1903358 202.025989 78.0999653 202.306001 78.0095948 202.546989 77.8822545 202.748268 77.7165753 202.950233 77.550896 203.104958 77.3475624 203.213813 77.107259 203.321984 76.866271 203.375385 76.592421 203.375385 76.285709 203.375385 75.9543505 203.300761 75.6716004 203.150143 75.436774 202.999526 75.2026323 202.800985 74.9965602 202.55452 74.8185577 202.30737 74.6412398 202.025989 74.4789837 201.710377 74.3311047 201.39408 74.1839103 201.070937 74.0339774 200.739579 73.8799368 200.408905 73.7265808 200.087131 73.5567938 199.774257 73.3705758 199.461384 73.1836732 199.181372 72.9639086 198.934907 72.711282 198.687758 72.4586553 198.487847 72.1622127 198.335176 71.8219541 198.181135 71.4823801 198.104457 71.0743436 198.104457 70.5992139 198.104457 70.1117609 198.193458 69.677024 198.370776 69.2950032 198.548094 68.9129825 198.795244 68.592578 199.110856 68.3344744 199.426468 68.0756861 199.803012 67.8785141 200.239118 67.7422738 200.675909 67.6074026 201.146246 67.5396248 201.651499 67.5396248 201.910287 67.5396248 202.170445 67.5622174 202.432656 67.6074026 202.694183 67.6519033 202.940648 67.7128349 203.172736 67.7881436 203.404139 67.8634524 203.610896 67.9476613 203.790952 68.0407703 203.971693 68.1345639 204.090133 68.209188 204.147642 68.2660119 204.204466 68.3235204 204.24212 68.3687056 204.260605 68.4015676 204.277721 68.4351142 204.293467 68.4768764 204.305106 68.5282232 204.317429 68.5795701 204.326329 68.6411864 204.332491 68.713072 204.337968 68.7856422 204.341391 68.8780666 204.341391 68.992399 204.341391 69.1012544 204.336598 69.1971019 204.328383 69.2813107 204.318798 69.3655196 204.305106 69.4367206 204.287305 69.4935445 204.269505 69.551053 204.244174 69.5928151 204.210627 69.6195155 204.177765 69.6469005 204.139426 69.660593 204.097664 69.660593 204.031256 69.660593 203.927877 69.6181462 203.786845 69.5339374 203.645127 69.4497285 203.471917 69.3559349 203.267214 69.249818 203.062511 69.1450704 202.820154 69.0485382 202.540827 68.9609062 202.260815 68.8746435 201.946573 68.8301429 201.597414 68.8301429 201.272902 68.8301429 200.990151 68.8746435 200.749163 68.9609062 200.50886 69.0485382 200.309634 69.1642399 200.15354 69.3086957 199.996761 69.4531516 199.87969 69.6243079 199.800958 69.8228491 199.722911 70.0213904 199.683887 70.2322549 199.683887 70.454758 199.683887 70.7799548 199.759196 71.0599665 199.909813 71.2947928 200.059746 71.5289346 200.260341 71.736376 200.509545 71.917117 200.760117 72.097858 201.044237 72.2635372 201.363272 72.4134701 201.681623 72.5640876 202.00682 72.7160743 202.337493 72.8687457 202.668852 73.0227863 202.993364 73.1912041 203.312399 73.3746836 203.631435 73.5581631 203.915554 73.7751892 204.165442 74.0243927 204.41533 74.2742808 204.61661 74.5693542 204.769966 74.9089282 204.924007 75.2491868 205 75.6510617 205 76.1145528M96.1192951 56.9457376C96.1192951 57.4934376 96.0193398 57.980206 95.8173754 58.407412 95.6160957 58.8353026 95.3360841 59.1974692 94.9780252 59.4945965 94.6199663 59.793093 94.198922 60.0169653 93.7148921 60.1675828 93.2301776 60.3182003 92.7084934 60.3935091 92.1484701 60.3935091 91.7568646 60.3935091 91.394698 60.3599625 91.0612856 60.2935538 90.726504 60.2278298 90.4293768 60.1470441 90.1671654 60.050512 89.9056386 59.9539798 89.685874 59.8547092 89.5085561 59.7520155 89.3305536 59.6500063 89.2080058 59.563059 89.138174 59.4911733 89.0697115 59.4186031 89.01768 59.3268633 88.9855026 59.2152695 88.951956 59.1043602 88.9348404 58.955112 88.9348404 58.768894 88.9348404 58.6360767 88.941002 58.5265367 88.9540099 58.4389047 88.9649639 58.3519574 88.9834488 58.281441 89.0074106 58.2273556 89.0313725 58.1732702 89.0621806 58.1356159 89.0984658 58.1143925 89.1340663 58.0938537 89.1758284 58.0828997 89.2237521 58.0828997 89.307961 58.0828997 89.4270858 58.133562 89.5811264 58.2362557 89.7337978 58.3382649 89.9309698 58.4498587 90.1719578 58.5703527 90.4129458 58.6908467 90.7025421 58.8038099 91.0428008 58.9085575 91.3830594 59.0139897 91.7753495 59.0660212 92.2203557 59.0660212 92.5571912 59.0660212 92.8659571 59.0215206 93.1459687 58.9311501 93.4259803 58.8407796 93.6662837 58.7134394 93.8675635 58.5477601 94.0695278 58.3820809 94.2249377 58.1794319 94.3331085 57.9384439 94.4412792 57.6974559 94.49468 57.4236059 94.49468 57.1168939 94.49468 56.7855354 94.4200558 56.5027853 94.2694383 56.2679589 94.1195055 56.0338171 93.9209642 55.827745 93.6738146 55.6497425 93.4273496 55.4724246 93.1459687 55.3101685 92.8303566 55.1622895 92.5140599 55.0150951 92.1902322 54.8651623 91.8595584 54.7111216 91.5281999 54.5577657 91.2071107 54.3879787 90.8942371 54.2017607 90.5813635 54.014858 90.3006673 53.7950934 90.0542023 53.5424668 89.8077373 53.2898402 89.6078268 52.9933975 89.4544708 52.6531389 89.3004301 52.3135649 89.2237521 51.9055284 89.2237521 51.4303987 89.2237521 50.9429457 89.3127534 50.5082088 89.4907559 50.1261881 89.6680738 49.7441673 89.9145388 49.4237628 90.2308355 49.1649746 90.5464476 48.906871 90.9229914 48.7090143 91.3584129 48.5734586 91.7952036 48.4385875 92.2662256 48.3708096 92.7714789 48.3708096 93.0302671 48.3708096 93.2904246 48.3934022 93.5519513 48.4385875 93.8134781 48.4830881 94.0606277 48.5440197 94.2927156 48.6193285 94.5234342 48.6946372 94.730191 48.7788461 94.910932 48.8719551 95.0909883 48.9657487 95.2094285 49.0403728 95.266937 49.0971967 95.3237608 49.1547052 95.3614152 49.1998905 95.3799001 49.2327525 95.3977003 49.2662991 95.4127621 49.3080612 95.4250853 49.3594081 95.436724 49.410755 95.4456241 49.4723712 95.4524703 49.5442568 95.4579473 49.6168271 95.4613705 49.7092515 95.4613705 49.8235838 95.4613705 49.9324392 95.4565781 50.0282867 95.447678 50.1124956 95.4380932 50.1967044 95.4250853 50.2679054 95.4066005 50.3247293 95.3888002 50.3822378 95.3634691 50.4239999 95.3299225 50.4507003 95.2970605 50.4780853 95.2594061 50.4917778 95.2169593 50.4917778 95.1505507 50.4917778 95.0471723 50.4493311 94.9061396 50.3651222 94.7644222 50.2809133 94.5912121 50.1871197 94.3865092 50.0810028 94.1818063 49.9762552 93.9401337 49.8797231 93.6608067 49.7927757 93.3801105 49.7058283 93.0658676 49.6613277 92.7173935 49.6613277 92.3921966 49.6613277 92.1094465 49.7058283 91.8684585 49.7927757 91.6281551 49.8797231 91.4296139 49.9954247 91.2728347 50.1398806 91.1167402 50.2843364 90.9989848 50.4554927 90.9209375 50.6540339 90.8422056 50.8525752 90.8038666 51.0634397 90.8038666 51.2859428 90.8038666 51.6111397 90.8784908 51.8911513 91.0291083 52.1259777 91.1797257 52.3601194 91.3803209 52.5675608 91.6295244 52.7483018 91.8794125 52.9290428 92.1635319 53.094722 92.4825671 53.2446549 92.8016024 53.3952724 93.1261146 53.5472592 93.4574731 53.7006152 93.788147 53.8539712 94.1133438 54.0223889 94.4323791 54.2058684 94.7507297 54.3893479 95.0348491 54.606374 95.2854218 54.8555775 95.5346253 55.1054656 95.7365897 55.400539 95.8899457 55.740113 96.0433017 56.0803716 96.1192951 56.4822465 96.1192951 56.9457376M109.37295 58.5703527C109.37295 58.6662002 109.369527 58.7504091 109.36405 58.8229794 109.357889 58.894865 109.347619 58.9578505 109.332557 59.0119359 109.317496 59.0660212 109.297642 59.1146296 109.274364 59.1563917 109.249718 59.1988385 109.207271 59.2501853 109.147024 59.3104323 109.086777 59.3706793 108.960806 59.4624191 108.769111 59.584967 108.575362 59.7088841 108.337113 59.8293781 108.050939 59.946449 107.765451 60.0635198 107.437515 60.1627905 107.067818 60.2442608 106.697436 60.3250466 106.292822 60.3661241 105.853293 60.3661241 105.095413 60.3661241 104.410788 60.2394685 103.800103 59.9868418 103.189417 59.7342152 102.669102 59.3610946 102.238473 58.86748 101.808529 58.37455 101.477855 57.7652337 101.245767 57.0395312 101.014364 56.315198 100.898662 55.4799555 100.898662 54.535173 100.898662 53.5664287 101.023264 52.7031165 101.273152 51.9452367 101.522356 51.1873568 101.873568 50.5444939 102.324051 50.0180173 102.775904 49.4915407 103.315388 49.0896658 103.944559 48.8130773 104.573044 48.5364888 105.269993 48.39751 106.034034 48.39751 106.37087 48.39751 106.698805 48.4290027 107.017156 48.4926728 107.336191 48.5556583 107.631264 48.6357595 107.902376 48.7322916 108.172118 48.8281391 108.413106 48.9390483 108.624655 49.065704 108.83415 49.1923596 108.98066 49.295738 109.061446 49.3772083 109.142916 49.4579941 109.195632 49.520295 109.219594 49.5627417 109.243556 49.6045038 109.26341 49.6537968 109.278472 49.7106207 109.293534 49.7681292 109.305857 49.8359071 109.314073 49.9139543 109.323657 49.9926862 109.327765 50.0857952 109.327765 50.1939659 109.327765 50.3144599 109.321603 50.4171537 109.309965 50.5013626 109.297642 50.5855714 109.279841 50.6560878 109.255195 50.7129117 109.231233 50.7704202 109.202479 50.8121823 109.168932 50.8395673 109.13607 50.8662677 109.094993 50.8799602 109.047069 50.8799602 108.962175 50.8799602 108.84442 50.8210824 108.692433 50.7040116 108.541131 50.5869407 108.346013 50.4575466 108.107763 50.3158292 107.868829 50.1747964 107.578548 50.0454023 107.23692 49.9276468 106.895292 49.810576 106.485202 49.7516982 106.007334 49.7516982 105.487019 49.7516982 105.013943 49.8550766 104.587422 50.0632026 104.1609 50.2706439 103.795995 50.5759867 103.494075 50.9792308 103.191471 51.3824749 102.957329 51.8747203 102.790966 52.4545977 102.623917 53.0358443 102.540393 53.6992459 102.540393 54.4448025 102.540393 55.1848821 102.621179 55.8400683 102.781381 56.408307 102.941583 56.9772304 103.171617 57.4523601 103.471483 57.8343809 103.769979 58.2164016 104.137623 58.5053134 104.573729 58.7004315 105.009151 58.8962342 105.502081 58.9941356 106.052519 58.9941356 106.518064 58.9941356 106.925416 58.9373117 107.272521 58.8229794 107.62031 58.708647 107.916753 58.5806221 108.161849 58.4389047 108.40626 58.297872 108.60754 58.1698471 108.765688 58.0555147 108.922467 57.9411824 109.046384 57.8843585 109.137439 57.8843585 109.179201 57.8843585 109.216171 57.8932586 109.246295 57.9110589 109.276418 57.9288591 109.30038 57.963775 109.318865 58.0144372 109.33735 58.0657841 109.350358 58.1369851 109.359942 58.2273556 109.368158 58.3177261 109.37295 58.4320585 109.37295 58.5703527M116.217831 59.9868418C116.217831 60.0347656 116.206192 60.0772123 116.18223 60.1134975 116.157584 60.149098 116.115822 60.1778522 116.055575 60.1990756 115.995328 60.220299 115.915911 60.2380992 115.815956 60.253161 115.71737 60.2682227 115.592084 60.2757536 115.442151 60.2757536 115.297695 60.2757536 115.173778 60.2682227 115.072453 60.253161 114.969075 60.2380992 114.888289 60.220299 114.828042 60.1990756 114.767795 60.1778522 114.726033 60.149098 114.702071 60.1134975 114.677425 60.0772123 114.665786 60.0347656 114.665786 59.9868418L114.665786 48.7767922C114.665786 48.7288685 114.678794 48.6864217 114.706179 48.6508212 114.732879 48.6145361 114.778749 48.5864665 114.841735 48.5652431 114.90472 48.5440197 114.986191 48.5262195 115.085461 48.5104731 115.184732 48.496096 115.303172 48.4878805 115.442151 48.4878805 115.592084 48.4878805 115.71737 48.496096 115.815956 48.5104731 115.915911 48.5262195 115.995328 48.5440197 116.055575 48.5652431 116.115822 48.5864665 116.157584 48.6145361 116.18223 48.6508212 116.206192 48.6864217 116.217831 48.7288685 116.217831 48.7767922L116.217831 59.9868418M129.056603 59.5808592C129.056603 59.6897146 129.051126 59.7835082 129.038803 59.8649786 129.02648 59.946449 129.005257 60.0142268 128.975133 60.0683122 128.94501 60.1223976 128.910778 60.1614212 128.871755 60.1853831 128.832731 60.209345 128.788915 60.2216682 128.740991 60.2216682L123.135967 60.2216682C122.997672 60.2216682 122.866224 60.1757983 122.743676 60.0820047 122.619759 59.9888957 122.558143 59.8245857 122.558143 59.5897593L122.558143 49.1738747C122.558143 48.9390483 122.619759 48.775423 122.743676 48.6816293 122.866224 48.589205 122.997672 48.5419658 123.135967 48.5419658L128.678006 48.5419658C128.72593 48.5419658 128.769061 48.5542891 128.808769 48.578251 128.847793 48.6022128 128.879286 48.6419211 128.903247 48.6960065 128.927209 48.7500918 128.947063 48.8178697 128.962125 48.8986555 128.977187 48.9801258 128.984718 49.0807657 128.984718 49.2012597 128.984718 49.3094305 128.977187 49.4039087 128.962125 49.4853791 128.947063 49.5661648 128.927209 49.6332581 128.903247 49.6839203 128.879286 49.7359518 128.847793 49.7729216 128.808769 49.7968835 128.769061 49.82153 128.72593 49.8331686 128.678006 49.8331686L124.110873 49.8331686 124.110873 53.4979662 128.027612 53.4979662C128.07622 53.4979662 128.119352 53.510974 128.15906 53.5376744 128.197399 53.5650594 128.230946 53.6027138 128.257646 53.6506375 128.285031 53.6992459 128.304885 53.7649699 128.316524 53.8491788 128.328847 53.9333877 128.335009 54.0333429 128.335009 54.1476753 128.335009 54.255846 128.328847 54.348955 128.316524 54.4270023 128.304885 54.5050495 128.285031 54.5687197 128.257646 54.6166434 128.230946 54.6652518 128.197399 54.699483 128.15906 54.7207064 128.119352 54.7419298 128.07622 54.7521991 128.027612 54.7521991L124.110873 54.7521991 124.110873 58.9311501 128.740991 58.9311501C128.788915 58.9311501 128.832731 58.9434734 128.871755 58.9674352 128.910778 58.9913971 128.94501 59.0290515 128.975133 59.0797137 129.005257 59.1310606 129.02648 59.1974692 129.038803 59.278255 129.051126 59.3597253 129.056603 59.4610498 129.056603 59.5808592M143.645962 59.5808592C143.645962 59.7013532 143.626108 59.804047 143.58503 59.8882558 143.544638 59.9724647 143.491921 60.0409272 143.426882 60.0950126 143.361158 60.149098 143.287903 60.1888062 143.207117 60.2127681 143.126332 60.23673 143.045546 60.2490532 142.96476 60.2490532L142.451291 60.2490532C142.289035 60.2490532 142.147318 60.2326222 142.026824 60.1990756 141.904961 60.1662136 141.789944 60.1059666 141.681088 60.0183346 141.572233 59.9313872 141.462693 59.8122625 141.353838 59.6623296 141.244982 59.5117121 141.129281 59.3193325 141.007417 59.0845061L137.444629 52.4415898C137.258411 52.0985927 137.070139 51.7391646 136.881182 51.3626208 136.692226 50.9874463 136.516277 50.6211719 136.353337 50.2665362L136.334852 50.2665362C136.347175 50.6999038 136.355391 51.1414869 136.361552 51.5926548 136.367714 52.0445073 136.371137 52.4929367 136.371137 52.9379429L136.371137 59.9868418C136.371137 60.0292886 136.358129 60.0696815 136.332798 60.1087051 136.307467 60.1477287 136.26502 60.1778522 136.204773 60.1990756 136.143841 60.220299 136.06511 60.2380992 135.966524 60.253161 135.867938 60.2682227 135.742651 60.2757536 135.58998 60.2757536 135.437993 60.2757536 135.312022 60.2682227 135.213436 60.253161 135.115535 60.2380992 135.038172 60.220299 134.980664 60.1990756 134.92384 60.1778522 134.882078 60.1477287 134.856746 60.1087051 134.831415 60.0696815 134.818407 60.0292886 134.818407 59.9868418L134.818407 49.2101598C134.818407 48.9691718 134.88687 48.7980156 135.02311 48.6960065 135.160035 48.5939973 135.309284 48.5419658 135.47017 48.5419658L136.234897 48.5419658C136.414268 48.5419658 136.564886 48.5577122 136.686749 48.5878357 136.807928 48.6179592 136.916098 48.6672522 137.011946 48.7363993 137.108478 48.8055465 137.202272 48.9020786 137.291957 49.0246265 137.381643 49.1485436 137.476122 49.3039535 137.575392 49.4901715L140.314577 54.6166434C140.483679 54.929517 140.645935 55.2348598 140.803399 55.5326716 140.960178 55.8304835 141.11148 56.1241876 141.256621 56.4124148 141.402446 56.7013265 141.545533 56.9854459 141.688619 57.2661421 141.831021 57.5454691 141.972054 57.82685 142.111717 58.1096001L142.120618 58.1096001C142.108294 57.6344704 142.100763 57.1394865 142.098025 56.6246485 142.094602 56.1104951 142.093233 55.6155113 142.093233 55.1403815L142.093233 48.8041772C142.093233 48.7624151 142.10624 48.7227068 142.131572 48.6864217 142.156903 48.6508212 142.200034 48.6193285 142.259596 48.5919435 142.319843 48.5652431 142.399945 48.545389 142.497846 48.5337503 142.597117 48.5214271 142.725141 48.5152655 142.883974 48.5152655 143.023638 48.5152655 143.144132 48.5214271 143.246141 48.5337503 143.346781 48.545389 143.426882 48.5652431 143.484391 48.5919435 143.541214 48.6193285 143.582292 48.6508212 143.607623 48.6864217 143.632954 48.7227068 143.645962 48.7624151 143.645962 48.8041772L143.645962 59.5808592M157.784153 58.5703527C157.784153 58.6662002 157.78073 58.7504091 157.775253 58.8229794 157.769091 58.894865 157.758822 58.9578505 157.74376 59.0119359 157.728698 59.0660212 157.708844 59.1146296 157.685567 59.1563917 157.66092 59.1988385 157.618474 59.2501853 157.558227 59.3104323 157.49798 59.3706793 157.372009 59.4624191 157.179629 59.584967 156.986565 59.7088841 156.748315 59.8293781 156.462142 59.946449 156.176653 60.0635198 155.848033 60.1627905 155.478336 60.2442608 155.107954 60.3250466 154.70334 60.3661241 154.264496 60.3661241 153.505931 60.3661241 152.821306 60.2394685 152.211305 59.9868418 151.599935 59.7342152 151.07962 59.3610946 150.648991 58.86748 150.219047 58.37455 149.888373 57.7652337 149.656285 57.0395312 149.424882 56.315198 149.30918 55.4799555 149.30918 54.535173 149.30918 53.5664287 149.433782 52.7031165 149.68367 51.9452367 149.932873 51.1873568 150.284086 50.5444939 150.734569 50.0180173 151.187106 49.4915407 151.726591 49.0896658 152.355761 48.8130773 152.984247 48.5364888 153.680511 48.39751 154.444552 48.39751 154.782072 48.39751 155.109323 48.4290027 155.428358 48.4926728 155.747393 48.5556583 156.041782 48.6357595 156.313578 48.7322916 156.583321 48.8281391 156.824309 48.9390483 157.035173 49.065704 157.245353 49.1923596 157.391863 49.295738 157.472648 49.3772083 157.554119 49.4579941 157.60615 49.520295 157.630797 49.5627417 157.654759 49.6045038 157.674613 49.6537968 157.689675 49.7106207 157.704736 49.7681292 157.71706 49.8359071 157.725275 49.9139543 157.73486 49.9926862 157.738968 50.0857952 157.738968 50.1939659 157.738968 50.3144599 157.732806 50.4171537 157.720483 50.5013626 157.708844 50.5855714 157.691044 50.6560878 157.666397 50.7129117 157.642435 50.7704202 157.613681 50.8121823 157.580135 50.8395673 157.547273 50.8662677 157.506195 50.8799602 157.458271 50.8799602 157.373378 50.8799602 157.255622 50.8210824 157.103636 50.7040116 156.952333 50.5869407 156.757215 50.4575466 156.518966 50.3158292 156.280032 50.1747964 155.989066 50.0454023 155.647438 49.9276468 155.30581 49.810576 154.89572 49.7516982 154.417852 49.7516982 153.897537 49.7516982 153.424461 49.8550766 152.997939 50.0632026 152.571418 50.2706439 152.207198 50.5759867 151.904593 50.9792308 151.601989 51.3824749 151.367847 51.8747203 151.201483 52.4545977 151.03512 53.0358443 150.951595 53.6992459 150.951595 54.4448025 150.951595 55.1848821 151.031696 55.8400683 151.191899 56.408307 151.352786 56.9772304 151.58282 57.4523601 151.882001 57.8343809 152.181182 58.2164016 152.548825 58.5053134 152.984932 58.7004315 153.419668 58.8962342 153.912598 58.9941356 154.463722 58.9941356 154.928582 58.9941356 155.335934 58.9373117 155.683723 58.8229794 156.031513 58.708647 156.327955 58.5806221 156.573051 58.4389047 156.817462 58.297872 157.018742 58.1698471 157.17689 58.0555147 157.33367 57.9411824 157.457587 57.8843585 157.548642 57.8843585 157.590404 57.8843585 157.627374 57.8932586 157.657497 57.9110589 157.687621 57.9288591 157.711583 57.963775 157.730067 58.0144372 157.748552 58.0657841 157.76156 58.1369851 157.771145 58.2273556 157.77936 58.3177261 157.784153 58.4320585 157.784153 58.5703527M169.575449 59.5808592C169.575449 59.6897146 169.569287 59.7835082 169.557649 59.8649786 169.545326 59.946449 169.524102 60.0142268 169.493979 60.0683122 169.463855 60.1223976 169.429624 60.1614212 169.389916 60.1853831 169.351577 60.209345 169.307076 60.2216682 169.259837 60.2216682L163.654127 60.2216682C163.515833 60.2216682 163.38507 60.1757983 163.261837 60.0820047 163.138605 59.9888957 163.076989 59.8245857 163.076989 59.5897593L163.076989 49.1738747C163.076989 48.9390483 163.138605 48.775423 163.261837 48.6816293 163.38507 48.589205 163.515833 48.5419658 163.654127 48.5419658L169.196167 48.5419658C169.244775 48.5419658 169.287907 48.5542891 169.327615 48.578251 169.365954 48.6022128 169.397447 48.6419211 169.421408 48.6960065 169.44537 48.7500918 169.465909 48.8178697 169.480286 48.8986555 169.496033 48.9801258 169.502879 49.0807657 169.502879 49.2012597 169.502879 49.3094305 169.496033 49.4039087 169.480286 49.4853791 169.465909 49.5661648 169.44537 49.6332581 169.421408 49.6839203 169.397447 49.7359518 169.365954 49.7729216 169.327615 49.7968835 169.287907 49.82153 169.244775 49.8331686 169.196167 49.8331686L164.629033 49.8331686 164.629033 53.4979662 168.546458 53.4979662C168.594381 53.4979662 168.638197 53.510974 168.677221 53.5376744 168.716245 53.5650594 168.749791 53.6027138 168.776492 53.6506375 168.803877 53.6992459 168.823046 53.7649699 168.835369 53.8491788 168.847008 53.9333877 168.85317 54.0333429 168.85317 54.1476753 168.85317 54.255846 168.847008 54.348955 168.835369 54.4270023 168.823046 54.5050495 168.803877 54.5687197 168.776492 54.6166434 168.749791 54.6652518 168.716245 54.699483 168.677221 54.7207064 168.638197 54.7419298 168.594381 54.7521991 168.546458 54.7521991L164.629033 54.7521991 164.629033 58.9311501 169.259837 58.9311501C169.307076 58.9311501 169.351577 58.9434734 169.389916 58.9674352 169.429624 58.9913971 169.463855 59.0290515 169.493979 59.0797137 169.524102 59.1310606 169.545326 59.1974692 169.557649 59.278255 169.569287 59.3597253 169.575449 59.4610498 169.575449 59.5808592M181.429046 56.9457376C181.429046 57.4934376 181.329091 57.980206 181.127127 58.407412 180.925847 58.8353026 180.645835 59.1974692 180.287776 59.4945965 179.929717 59.793093 179.508673 60.0169653 179.024643 60.1675828 178.539929 60.3182003 178.018244 60.3935091 177.458221 60.3935091 177.066616 60.3935091 176.704449 60.3599625 176.371037 60.2935538 176.036255 60.2278298 175.739128 60.1470441 175.476916 60.050512 175.21539 59.9539798 174.995625 59.8547092 174.818307 59.7520155 174.640305 59.6500063 174.517757 59.563059 174.447925 59.4911733 174.379463 59.4186031 174.327431 59.3268633 174.294569 59.2152695 174.261707 59.1043602 174.244591 58.955112 174.244591 58.768894 174.244591 58.6360767 174.250753 58.5265367 174.263761 58.4389047 174.274715 58.3519574 174.2932 58.281441 174.317162 58.2273556 174.341124 58.1732702 174.371932 58.1356159 174.407532 58.1143925 174.443817 58.0938537 174.485579 58.0828997 174.533503 58.0828997 174.617712 58.0828997 174.736837 58.133562 174.890877 58.2362557 175.043549 58.3382649 175.240721 58.4498587 175.481709 58.5703527 175.722012 58.6908467 176.012293 58.8038099 176.352552 58.9085575 176.692126 59.0139897 177.085101 59.0660212 177.530107 59.0660212 177.866942 59.0660212 178.175708 59.0215206 178.45572 58.9311501 178.735731 58.8407796 178.976035 58.7134394 179.177315 58.5477601 179.379279 58.3820809 179.534689 58.1794319 179.64286 57.9384439 179.75103 57.6974559 179.804431 57.4236059 179.804431 57.1168939 179.804431 56.7855354 179.729807 56.5027853 179.579189 56.2679589 179.428572 56.0338171 179.230031 55.827745 178.983566 55.6497425 178.737101 55.4724246 178.45572 55.3101685 178.140108 55.1622895 177.823811 55.0150951 177.499983 54.8651623 177.169309 54.7111216 176.837951 54.5577657 176.516862 54.3879787 176.203988 54.2017607 175.89043 54.014858 175.610418 53.7950934 175.363953 53.5424668 175.117488 53.2898402 174.917578 52.9933975 174.764222 52.6531389 174.610181 52.3135649 174.533503 51.9055284 174.533503 51.4303987 174.533503 50.9429457 174.622504 50.5082088 174.800507 50.1261881 174.977825 49.7441673 175.22429 49.4237628 175.540587 49.1649746 175.856199 48.906871 176.232742 48.7090143 176.668164 48.5734586 177.104955 48.4385875 177.575292 48.3708096 178.08123 48.3708096 178.340018 48.3708096 178.600176 48.3934022 178.861702 48.4385875 179.123229 48.4830881 179.370379 48.5440197 179.601782 48.6193285 179.833185 48.6946372 180.039942 48.7788461 180.220683 48.8719551 180.400739 48.9657487 180.51918 49.0403728 180.576688 49.0971967 180.633512 49.1547052 180.671166 49.1998905 180.689651 49.2327525 180.707451 49.2662991 180.722513 49.3080612 180.734836 49.3594081 180.746475 49.410755 180.755375 49.4723712 180.762221 49.5442568 180.767698 49.6168271 180.770437 49.7092515 180.770437 49.8235838 180.770437 49.9324392 180.766329 50.0282867 180.757429 50.1124956 180.747844 50.1967044 180.734836 50.2679054 180.716352 50.3247293 180.698551 50.3822378 180.67322 50.4239999 180.639674 50.4507003 180.606812 50.4780853 180.569157 50.4917778 180.52671 50.4917778 180.460302 50.4917778 180.356923 50.4493311 180.215891 50.3651222 180.074173 50.2809133 179.900963 50.1871197 179.69626 50.0810028 179.491557 49.9762552 179.249885 49.8797231 178.970558 49.7927757 178.689862 49.7058283 178.375619 49.6613277 178.027145 49.6613277 177.701948 49.6613277 177.419198 49.7058283 177.17821 49.7927757 176.937906 49.8797231 176.739365 49.9954247 176.582586 50.1398806 176.426491 50.2843364 176.308736 50.4554927 176.230689 50.6540339 176.151957 50.8525752 176.113618 51.0634397 176.113618 51.2859428 176.113618 51.6111397 176.188242 51.8911513 176.338859 52.1259777 176.489477 52.3601194 176.689387 52.5675608 176.939275 52.7483018 177.189164 52.9290428 177.473283 53.094722 177.792318 53.2446549 178.111353 53.3952724 178.435866 53.5472592 178.767224 53.7006152 179.097898 53.8539712 179.423095 54.0223889 179.741446 54.2058684 180.060481 54.3893479 180.3446 54.606374 180.595173 54.8555775 180.844376 55.1054656 181.046341 55.400539 181.199012 55.740113 181.353053 56.0803716 181.429046 56.4822465 181.429046 56.9457376M196.38331 50.7081193C196.38331 50.8710601 196.405902 51.0367393 196.451772 51.2051571 196.496273 51.3735748 196.566105 51.5495234 196.658529 51.7323183 196.752323 51.9164824 196.866655 52.1136544 197.001526 52.3245189 197.137767 52.5346988 197.297969 52.7695252 197.484871 53.0283134 197.923716 52.7818484 198.292729 52.5545529 198.590541 52.3464269 198.888353 52.1389856 199.127287 51.9390751 199.308028 51.7466954 199.488084 51.5543158 199.619532 51.3619362 199.701003 51.1688719 199.781788 50.9764923 199.822866 50.7717894 199.822866 50.5554479 199.822866 50.3808686 199.791373 50.2138201 199.727703 50.0536178 199.664717 49.8947848 199.564078 49.7537521 199.425099 49.629835 199.286804 49.5072871 199.112225 49.4087011 198.902045 49.3361308 198.691181 49.2642452 198.438554 49.2279601 198.143481 49.2279601 197.82513 49.2279601 197.555388 49.2690376 197.336308 49.3498233 197.115859 49.4312937 196.935802 49.5394645 196.794769 49.6750202 196.653052 49.810576 196.548989 49.9680397 196.483265 50.1487807 196.416856 50.3295217 196.38331 50.5157397 196.38331 50.7081193ZM195.336518 56.9902382C195.336518 57.3031119 195.389234 57.5892851 195.494667 57.8480734 195.600099 58.1068616 195.754824 58.330734 195.959527 58.5203751 196.16423 58.7100162 196.419595 58.8578952 196.726992 58.9626429 197.033019 59.0680751 197.388339 59.1207912 197.791583 59.1207912 198.038048 59.1207912 198.279721 59.0947755 198.513178 59.0434286 198.748689 58.9927664 198.972562 58.9236192 199.186165 58.8359872 199.399768 58.7497245 199.602417 58.6436076 199.795481 58.5203751 199.98786 58.3971426 200.165863 58.2656946 200.328119 58.1274004 200.015245 57.8569735 199.703741 57.5762772 199.394291 57.2839424 199.083471 56.9922921 198.784974 56.698588 198.496063 56.4041993 198.207151 56.1091259 197.928508 55.8154218 197.66082 55.5237715 197.393132 55.2321213 197.147351 54.9480019 196.924848 54.6707288 196.624298 54.863793 196.37304 55.0541188 196.171761 55.2437599 195.970481 55.433401 195.80754 55.6230421 195.684308 55.8119986 195.561075 56.0023244 195.472074 56.1933348 195.417989 56.3857144 195.363903 56.5787786 195.336518 56.7800584 195.336518 56.9902382ZM193.720803 57.1442789C193.720803 56.8129204 193.766673 56.4979929 193.856359 56.2008656 193.947414 55.9023691 194.088447 55.6134574 194.280826 55.3341304 194.473206 55.0541188 194.724463 54.7836919 195.033914 54.5221652 195.344734 54.2599538 195.718539 53.9970578 196.158068 53.7321079 195.91708 53.4075957 195.711693 53.1125223 195.539852 52.8475724 195.368696 52.5833072 195.226978 52.3361576 195.116069 52.1074928 195.00379 51.8788281 194.924374 51.6604327 194.87645 51.4529913 194.828526 51.2455499 194.80388 51.0367393 194.80388 50.8258748 194.80388 50.4527542 194.866865 50.0967492 194.994206 49.7564906 195.119492 49.4169166 195.322826 49.114997 195.602837 48.8534702 195.882849 48.5919435 196.242277 48.3845021 196.681806 48.2304615 197.120651 48.0777901 197.653289 48.0004275 198.279721 48.0004275 198.808252 48.0004275 199.267635 48.057936 199.655133 48.1722683 200.044 48.2866007 200.365773 48.4495415 200.621823 48.6597213 200.877188 48.8705858 201.069568 49.1245817 201.198962 49.421709 201.328356 49.7202055 201.392711 50.0522486 201.392711 50.4198922 201.392711 50.7745279 201.335887 51.0997248 201.221555 51.3941136 201.107222 51.6891869 200.923743 51.9753602 200.671116 52.2519487 200.41849 52.5292218 200.094662 52.804441 199.701003 53.0776064 199.306659 53.352141 198.829475 53.6389989 198.270136 53.9395493 198.474839 54.1860143 198.697342 54.4434333 198.93833 54.7111216 199.178634 54.9794946 199.429891 55.2485523 199.691418 55.5196638 199.953629 55.7900906 200.221318 56.0564098 200.495168 56.3179365 200.768333 56.5801479 201.038075 56.8314053 201.303025 57.0717086 201.422834 56.9094525 201.53169 56.7246038 201.627537 56.5164778 201.724069 56.3090364 201.808278 56.0899564 201.880164 55.8578685 201.952734 55.6264653 202.00682 55.389585 202.043105 55.1492816 202.078705 54.9082936 202.09719 54.6652518 202.09719 54.4181022L202.09719 54.0935899C202.09719 54.0333429 202.107459 53.9840499 202.128683 53.9443417 202.149906 53.905318 202.184137 53.8717714 202.232061 53.8443864 202.279985 53.817686 202.351186 53.7985165 202.44498 53.7861933 202.537404 53.7745547 202.659267 53.768393 202.809885 53.768393 202.942017 53.768393 203.05498 53.7711315 203.148774 53.7772932 203.241883 53.7834548 203.318561 53.7971473 203.378808 53.817686 203.439055 53.839594 203.482186 53.8717714 203.509571 53.9169567 203.536272 53.9621419 203.550649 54.0237582 203.550649 54.1018054L203.550649 54.3284163C203.550649 54.6652518 203.521895 54.9959256 203.464386 55.3211225 203.407562 55.6456348 203.329515 55.9633008 203.22956 56.2727513 203.130974 56.5828864 203.007057 56.879329 202.859862 57.1620791 202.711983 57.4448292 202.548358 57.706356 202.367617 57.947344 202.638728 58.1636855 202.874924 58.3444265 203.076204 58.4888824 203.277484 58.6333382 203.449324 58.7504091 203.590357 58.8407796 203.732075 58.9311501 203.849145 58.9941356 203.942939 59.0304207 204.036048 59.0660212 204.112726 59.0845061 204.172973 59.0845061 204.23322 59.0845061 204.290044 59.0817676 204.344814 59.075606 204.398215 59.0694444 204.442715 59.0783445 204.474893 59.1023064 204.508439 59.1262682 204.53377 59.1748766 204.552255 59.2467622 204.570056 59.3193325 204.578956 59.4309263 204.578956 59.5808592 204.578956 59.7314767 204.576217 59.8519707 204.570056 59.9423412 204.563894 60.0327117 204.553625 60.099805 204.538563 60.1449902 204.523501 60.1901755 204.49817 60.2278298 204.461885 60.2579533 204.4256 60.2880768 204.359876 60.3154618 204.263344 60.3394237 204.166811 60.3633856 204.04084 60.3757088 203.884061 60.3757088 203.763567 60.3757088 203.631435 60.3538008 203.486979 60.3120387 203.342523 60.269592 203.174105 60.1963371 202.981726 60.0909048 202.789346 59.9854726 202.564789 59.842386 202.308739 59.6623296 202.053374 59.4815886 201.754193 59.2529238 201.411196 58.9763354 201.158569 59.1803536 200.89225 59.3706793 200.612238 59.5452587 200.332911 59.7198381 200.034415 59.8684017 199.718803 59.9916342 199.402506 60.1155513 199.071832 60.2113988 198.726097 60.280546 198.379676 60.3490085 198.005186 60.3839243 197.601942 60.3839243 197.223345 60.3839243 196.863232 60.3510623 196.523658 60.2853383 196.183399 60.2189297 195.869156 60.1237668 195.580245 60.0005343 195.291333 59.8773018 195.032545 59.721892 194.80388 59.535674 194.575215 59.3487713 194.381466 59.1372222 194.221949 58.8989727 194.062431 58.6620925 193.939199 58.3957734 193.852251 58.1007 193.764619 57.8063112 193.720803 57.487276 193.720803 57.1442789L193.720803 57.1442789Z"/></g></svg>